<mxfile host="app.diagrams.net" agent="Mozilla/5.0 (Macintosh; Intel Mac OS X 10_15_7) AppleWebKit/537.36 (KHTML, like Gecko) Chrome/131.0.0.0 Safari/537.36 Edg/131.0.0.0" version="26.0.2">
  <diagram name="第 1 页" id="PI-PgolQ2Xf6EuyH13EB">
    <mxGraphModel dx="639" dy="431" grid="1" gridSize="10" guides="1" tooltips="1" connect="1" arrows="1" fold="1" page="1" pageScale="1" pageWidth="1169" pageHeight="1654" math="0" shadow="0">
      <root>
        <mxCell id="0" />
        <mxCell id="1" parent="0" />
        <mxCell id="vY1KS3BJuGOrlJXOX7hW-115" value="" style="edgeStyle=orthogonalEdgeStyle;rounded=0;orthogonalLoop=1;jettySize=auto;html=1;exitX=0.75;exitY=1;exitDx=0;exitDy=0;entryX=0.75;entryY=0;entryDx=0;entryDy=0;endArrow=blockThin;endFill=1;strokeWidth=3;strokeColor=light-dark(#6c8ebf, #EDEDED);endSize=4;" edge="1" parent="1">
          <mxGeometry relative="1" as="geometry">
            <mxPoint x="720" y="137.12" as="sourcePoint" />
            <mxPoint x="720" y="163.71" as="targetPoint" />
          </mxGeometry>
        </mxCell>
        <mxCell id="4_5liSmTW8YfvUXAWCBd-84" value="" style="group;fontStyle=1;strokeWidth=2;" parent="1" vertex="1" connectable="0">
          <mxGeometry x="300" y="20" width="74" height="242" as="geometry" />
        </mxCell>
        <mxCell id="4_5liSmTW8YfvUXAWCBd-44" style="rounded=0;orthogonalLoop=1;jettySize=auto;html=1;entryX=0.5;entryY=0;entryDx=0;entryDy=0;endArrow=blockThin;endFill=1;fontStyle=1;strokeWidth=2;" parent="4_5liSmTW8YfvUXAWCBd-84" source="4_5liSmTW8YfvUXAWCBd-38" target="4_5liSmTW8YfvUXAWCBd-39" edge="1">
          <mxGeometry relative="1" as="geometry" />
        </mxCell>
        <mxCell id="4_5liSmTW8YfvUXAWCBd-38" value="&lt;span style=&quot;font-size: 16px;&quot;&gt;F&lt;sub&gt;1&lt;/sub&gt;&lt;/span&gt;" style="rounded=1;whiteSpace=wrap;html=1;fontStyle=1;strokeWidth=2;align=center;" parent="4_5liSmTW8YfvUXAWCBd-84" vertex="1">
          <mxGeometry x="-7" y="89.00317829457364" width="64" height="32" as="geometry" />
        </mxCell>
        <mxCell id="4_5liSmTW8YfvUXAWCBd-39" value="&lt;font style=&quot;font-size: 16px;&quot;&gt;F&lt;sub&gt;2&lt;/sub&gt;&lt;/font&gt;" style="rounded=1;whiteSpace=wrap;html=1;fontStyle=1;strokeWidth=2;" parent="4_5liSmTW8YfvUXAWCBd-84" vertex="1">
          <mxGeometry x="-7" y="153.73961240310075" width="64" height="32" as="geometry" />
        </mxCell>
        <mxCell id="4_5liSmTW8YfvUXAWCBd-48" value="A" style="shape=umlLifeline;perimeter=lifelinePerimeter;whiteSpace=wrap;html=1;container=0;dropTarget=0;collapsible=0;recursiveResize=0;outlineConnect=0;portConstraint=eastwest;newEdgeStyle={&quot;curved&quot;:0,&quot;rounded&quot;:0};size=21;fontStyle=1;strokeWidth=2;" parent="1" vertex="1">
          <mxGeometry x="70" y="90.30952380952381" width="55" height="158" as="geometry" />
        </mxCell>
        <mxCell id="4_5liSmTW8YfvUXAWCBd-49" value="" style="shape=umlFrame;whiteSpace=wrap;html=1;pointerEvents=0;width=33;height=22;fontStyle=1;strokeWidth=2;container=0;" parent="1" vertex="1">
          <mxGeometry x="51.63" y="127.27407407407408" width="187.38" height="44.31322751322752" as="geometry" />
        </mxCell>
        <mxCell id="4_5liSmTW8YfvUXAWCBd-50" value="example" style="shape=umlFrame;whiteSpace=wrap;html=1;pointerEvents=0;width=60;height=22;fontStyle=1;strokeWidth=2;container=0;" parent="1" vertex="1">
          <mxGeometry x="40" y="60" width="210" height="200" as="geometry" />
        </mxCell>
        <mxCell id="4_5liSmTW8YfvUXAWCBd-51" value="&lt;span style=&quot;font-size: 16px;&quot;&gt;F&lt;sub&gt;1&lt;/sub&gt;&lt;/span&gt;" style="text;html=1;align=center;verticalAlign=middle;resizable=0;points=[];autosize=1;strokeColor=none;fillColor=none;fontStyle=1;strokeWidth=2;container=0;" parent="1" vertex="1">
          <mxGeometry x="131" y="132.85392913758676" width="35" height="34" as="geometry" />
        </mxCell>
        <mxCell id="4_5liSmTW8YfvUXAWCBd-54" value="B" style="shape=umlLifeline;perimeter=lifelinePerimeter;whiteSpace=wrap;html=1;container=0;dropTarget=0;collapsible=0;recursiveResize=0;outlineConnect=0;portConstraint=eastwest;newEdgeStyle={&quot;curved&quot;:0,&quot;rounded&quot;:0};size=21;fontStyle=1;strokeWidth=2;" parent="1" vertex="1">
          <mxGeometry x="169" y="90.30952380952382" width="55" height="158" as="geometry" />
        </mxCell>
        <mxCell id="4_5liSmTW8YfvUXAWCBd-57" value="" style="shape=umlFrame;whiteSpace=wrap;html=1;pointerEvents=0;width=33;height=22;fontStyle=1;strokeWidth=2;container=0;" parent="1" vertex="1">
          <mxGeometry x="51.31" y="182.64550264550263" width="187.38" height="44.31322751322752" as="geometry" />
        </mxCell>
        <mxCell id="4_5liSmTW8YfvUXAWCBd-58" value="&lt;span style=&quot;font-size: 16px;&quot;&gt;F&lt;sub&gt;2&lt;/sub&gt;&lt;/span&gt;" style="text;html=1;align=center;verticalAlign=middle;resizable=0;points=[];autosize=1;strokeColor=none;fillColor=none;fontStyle=1;strokeWidth=2;container=0;" parent="1" vertex="1">
          <mxGeometry x="130.68" y="189.23593971959733" width="35" height="34" as="geometry" />
        </mxCell>
        <mxCell id="4_5liSmTW8YfvUXAWCBd-101" value="" style="html=1;shadow=0;dashed=0;align=center;verticalAlign=middle;shape=mxgraph.arrows2.arrow;dy=0.61;dx=16.82;notch=0;strokeWidth=2;" parent="1" vertex="1">
          <mxGeometry x="260" y="151" width="30" height="17.25" as="geometry" />
        </mxCell>
        <mxCell id="XYlBqfbwVm8jxROoVD9_-80" value="" style="html=1;shadow=0;dashed=0;align=center;verticalAlign=middle;shape=mxgraph.arrows2.arrow;dy=0.59;dx=13.07;notch=0;strokeWidth=2;fillColor=#fad9d5;strokeColor=#ae4132;" parent="1" vertex="1">
          <mxGeometry x="643" y="147" width="21" height="17.25" as="geometry" />
        </mxCell>
        <mxCell id="vY1KS3BJuGOrlJXOX7hW-95" value="" style="shape=ext;double=1;rounded=1;whiteSpace=wrap;html=1;fillColor=#F4F9FF;strokeColor=#6c8ebf;strokeWidth=3;" vertex="1" parent="1">
          <mxGeometry x="667" y="62.34" width="104" height="80" as="geometry" />
        </mxCell>
        <mxCell id="vY1KS3BJuGOrlJXOX7hW-96" value="" style="shape=ext;double=1;rounded=1;whiteSpace=wrap;html=1;fillColor=#F4F9FF;strokeColor=#6c8ebf;strokeWidth=3;" vertex="1" parent="1">
          <mxGeometry x="667" y="165.59" width="109" height="80" as="geometry" />
        </mxCell>
        <mxCell id="vY1KS3BJuGOrlJXOX7hW-106" style="rounded=0;orthogonalLoop=1;jettySize=auto;html=1;entryX=0.5;entryY=0;entryDx=0;entryDy=0;endArrow=blockThin;endFill=1;strokeWidth=2;endSize=2;strokeColor=light-dark(#82b366, #319eff);" edge="1" parent="1" source="vY1KS3BJuGOrlJXOX7hW-97" target="vY1KS3BJuGOrlJXOX7hW-99">
          <mxGeometry relative="1" as="geometry" />
        </mxCell>
        <mxCell id="vY1KS3BJuGOrlJXOX7hW-99" value="" style="rounded=1;whiteSpace=wrap;html=1;verticalAlign=bottom;fontStyle=1;strokeWidth=2;fillColor=light-dark(#f8fffe, #103c3f);strokeColor=#0e8088;" vertex="1" parent="1">
          <mxGeometry x="687" y="111.18999999999997" width="30" height="20" as="geometry" />
        </mxCell>
        <mxCell id="vY1KS3BJuGOrlJXOX7hW-101" value="" style="rounded=1;whiteSpace=wrap;html=1;verticalAlign=bottom;fontStyle=1;strokeWidth=2;fillColor=light-dark(#f8fffe, #103c3f);strokeColor=#0e8088;" vertex="1" parent="1">
          <mxGeometry x="733" y="216.80999999999997" width="30" height="20" as="geometry" />
        </mxCell>
        <mxCell id="vY1KS3BJuGOrlJXOX7hW-103" value="&lt;b&gt;&lt;font style=&quot;font-size: 22px;&quot; face=&quot;Comic Sans MS&quot;&gt;...&lt;/font&gt;&lt;/b&gt;" style="text;html=1;align=center;verticalAlign=middle;resizable=0;points=[];autosize=1;strokeColor=none;fillColor=none;fontColor=light-dark(#12739e, #ededed);" vertex="1" parent="1">
          <mxGeometry x="729.998904109589" y="178.57191795418223" width="47" height="38" as="geometry" />
        </mxCell>
        <mxCell id="vY1KS3BJuGOrlJXOX7hW-104" value="&lt;b&gt;&lt;font style=&quot;font-size: 22px;&quot; face=&quot;Comic Sans MS&quot;&gt;...&lt;/font&gt;&lt;/b&gt;" style="text;html=1;align=center;verticalAlign=middle;resizable=0;points=[];autosize=1;strokeColor=none;fillColor=none;fontColor=light-dark(#12739e, #ededed);" vertex="1" parent="1">
          <mxGeometry x="716.998904109589" y="99.85191795418223" width="47" height="38" as="geometry" />
        </mxCell>
        <mxCell id="vY1KS3BJuGOrlJXOX7hW-105" value="&lt;b&gt;&lt;font style=&quot;font-size: 22px;&quot; face=&quot;Comic Sans MS&quot;&gt;...&lt;/font&gt;&lt;/b&gt;" style="text;html=1;align=center;verticalAlign=middle;resizable=0;points=[];autosize=1;strokeColor=none;fillColor=none;fontColor=light-dark(#12739e, #ededed);" vertex="1" parent="1">
          <mxGeometry x="724.998904109589" y="50.6519179541822" width="47" height="38" as="geometry" />
        </mxCell>
        <mxCell id="vY1KS3BJuGOrlJXOX7hW-107" style="rounded=0;orthogonalLoop=1;jettySize=auto;html=1;endArrow=blockThin;endFill=1;strokeWidth=2;endSize=2;strokeColor=light-dark(#82b366, #319eff);exitX=1;exitY=0.5;exitDx=0;exitDy=0;" edge="1" parent="1" source="vY1KS3BJuGOrlJXOX7hW-97" target="vY1KS3BJuGOrlJXOX7hW-105">
          <mxGeometry relative="1" as="geometry">
            <mxPoint x="728" y="85.03" as="sourcePoint" />
            <mxPoint x="735" y="103.03" as="targetPoint" />
          </mxGeometry>
        </mxCell>
        <mxCell id="vY1KS3BJuGOrlJXOX7hW-108" style="rounded=0;orthogonalLoop=1;jettySize=auto;html=1;endArrow=blockThin;endFill=1;strokeWidth=2;endSize=2;strokeColor=light-dark(#82b366, #319eff);exitX=0.5;exitY=1;exitDx=0;exitDy=0;" edge="1" parent="1">
          <mxGeometry relative="1" as="geometry">
            <mxPoint x="733" y="108.64999999999998" as="sourcePoint" />
            <mxPoint x="757" y="120.34" as="targetPoint" />
          </mxGeometry>
        </mxCell>
        <mxCell id="vY1KS3BJuGOrlJXOX7hW-97" value="" style="rounded=1;whiteSpace=wrap;html=1;verticalAlign=bottom;fontStyle=1;strokeWidth=2;fillColor=light-dark(#f8fffe, #103c3f);strokeColor=#0e8088;" vertex="1" parent="1">
          <mxGeometry x="677" y="73.41999999999999" width="30" height="20" as="geometry" />
        </mxCell>
        <mxCell id="vY1KS3BJuGOrlJXOX7hW-109" style="rounded=0;orthogonalLoop=1;jettySize=auto;html=1;entryX=0.5;entryY=0;entryDx=0;entryDy=0;endArrow=blockThin;endFill=1;strokeWidth=2;endSize=2;strokeColor=light-dark(#82b366, #319eff);" edge="1" parent="1">
          <mxGeometry relative="1" as="geometry">
            <mxPoint x="732" y="195.34" as="sourcePoint" />
            <mxPoint x="739" y="208.34" as="targetPoint" />
          </mxGeometry>
        </mxCell>
        <mxCell id="vY1KS3BJuGOrlJXOX7hW-110" style="rounded=0;orthogonalLoop=1;jettySize=auto;html=1;endArrow=blockThin;endFill=1;strokeWidth=2;endSize=2;strokeColor=light-dark(#82b366, #319eff);exitX=0.154;exitY=1.04;exitDx=0;exitDy=0;exitPerimeter=0;entryX=0.841;entryY=-0.073;entryDx=0;entryDy=0;entryPerimeter=0;" edge="1" parent="1" source="vY1KS3BJuGOrlJXOX7hW-100" target="vY1KS3BJuGOrlJXOX7hW-102">
          <mxGeometry relative="1" as="geometry">
            <mxPoint x="694" y="153.59" as="sourcePoint" />
            <mxPoint x="701" y="171.59" as="targetPoint" />
          </mxGeometry>
        </mxCell>
        <mxCell id="vY1KS3BJuGOrlJXOX7hW-112" style="rounded=0;orthogonalLoop=1;jettySize=auto;html=1;endArrow=blockThin;endFill=1;strokeWidth=2;endSize=2;strokeColor=light-dark(#82b366, #319eff);exitX=1;exitY=0.5;exitDx=0;exitDy=0;" edge="1" parent="1" source="vY1KS3BJuGOrlJXOX7hW-102">
          <mxGeometry relative="1" as="geometry">
            <mxPoint x="718" y="221.81" as="sourcePoint" />
            <mxPoint x="731" y="231" as="targetPoint" />
          </mxGeometry>
        </mxCell>
        <mxCell id="vY1KS3BJuGOrlJXOX7hW-102" value="" style="rounded=1;whiteSpace=wrap;html=1;verticalAlign=bottom;fontStyle=1;strokeWidth=2;fillColor=light-dark(#f8fffe, #103c3f);strokeColor=#0e8088;" vertex="1" parent="1">
          <mxGeometry x="676" y="208.25999999999996" width="30" height="20" as="geometry" />
        </mxCell>
        <mxCell id="vY1KS3BJuGOrlJXOX7hW-100" value="" style="rounded=1;whiteSpace=wrap;html=1;verticalAlign=bottom;fontStyle=1;strokeWidth=2;fillColor=light-dark(#f8fffe, #103c3f);strokeColor=#0e8088;" vertex="1" parent="1">
          <mxGeometry x="704" y="174.98999999999998" width="30" height="20" as="geometry" />
        </mxCell>
        <mxCell id="vY1KS3BJuGOrlJXOX7hW-127" style="rounded=0;orthogonalLoop=1;jettySize=auto;html=1;exitX=0.97;exitY=0.351;exitDx=0;exitDy=0;entryX=0.022;entryY=0.075;entryDx=0;entryDy=0;endArrow=none;endFill=0;entryPerimeter=0;strokeWidth=3;endSize=5;strokeColor=light-dark(#b85450, #ededed);curved=1;fontSize=14;exitPerimeter=0;" edge="1" parent="1" source="vY1KS3BJuGOrlJXOX7hW-98" target="XYlBqfbwVm8jxROoVD9_-22">
          <mxGeometry relative="1" as="geometry">
            <mxPoint x="778" y="90.24" as="sourcePoint" />
            <mxPoint x="870" y="54.24" as="targetPoint" />
          </mxGeometry>
        </mxCell>
        <mxCell id="vY1KS3BJuGOrlJXOX7hW-128" style="rounded=0;orthogonalLoop=1;jettySize=auto;html=1;endArrow=none;endFill=0;strokeWidth=3;endSize=5;strokeColor=light-dark(#b85450, #ededed);curved=1;fontSize=14;exitX=1;exitY=0.75;exitDx=0;exitDy=0;" edge="1" parent="1" source="vY1KS3BJuGOrlJXOX7hW-98">
          <mxGeometry relative="1" as="geometry">
            <mxPoint x="778" y="106" as="sourcePoint" />
            <mxPoint x="827" y="130" as="targetPoint" />
          </mxGeometry>
        </mxCell>
        <mxCell id="vY1KS3BJuGOrlJXOX7hW-2" value="" style="group" vertex="1" connectable="0" parent="1">
          <mxGeometry x="782" y="73" width="89" height="70.78" as="geometry" />
        </mxCell>
        <mxCell id="XYlBqfbwVm8jxROoVD9_-22" value="" style="rounded=1;whiteSpace=wrap;html=1;strokeWidth=2;fillColor=#F7FFFE;strokeColor=#0e8088;" parent="vY1KS3BJuGOrlJXOX7hW-2" vertex="1">
          <mxGeometry y="2" width="70" height="64.92" as="geometry" />
        </mxCell>
        <mxCell id="XYlBqfbwVm8jxROoVD9_-23" style="rounded=0;orthogonalLoop=1;jettySize=auto;html=1;endArrow=openThin;endFill=0;strokeColor=#82b366;strokeWidth=2;fillColor=#d5e8d4;endSize=3;entryX=-0.25;entryY=0.336;entryDx=0;entryDy=0;entryPerimeter=0;exitX=1;exitY=1;exitDx=0;exitDy=0;" parent="vY1KS3BJuGOrlJXOX7hW-2" target="XYlBqfbwVm8jxROoVD9_-25" edge="1" source="XYlBqfbwVm8jxROoVD9_-24">
          <mxGeometry relative="1" as="geometry">
            <mxPoint x="33.10958904109589" y="18.44645711241343" as="sourcePoint" />
            <mxPoint x="47.73972602739726" y="26.516782099094307" as="targetPoint" />
          </mxGeometry>
        </mxCell>
        <mxCell id="XYlBqfbwVm8jxROoVD9_-25" value="" style="ellipse;whiteSpace=wrap;html=1;aspect=fixed;strokeWidth=2;fillColor=#b1ddf0;strokeColor=#10739e;" parent="vY1KS3BJuGOrlJXOX7hW-2" vertex="1">
          <mxGeometry x="50.178082191780824" y="19.161257325519458" width="13" height="13" as="geometry" />
        </mxCell>
        <mxCell id="XYlBqfbwVm8jxROoVD9_-26" value="" style="ellipse;whiteSpace=wrap;html=1;aspect=fixed;strokeWidth=2;fillColor=#b1ddf0;strokeColor=#10739e;" parent="vY1KS3BJuGOrlJXOX7hW-2" vertex="1">
          <mxGeometry x="14.999452054794524" y="50.77935002663827" width="13" height="13" as="geometry" />
        </mxCell>
        <mxCell id="XYlBqfbwVm8jxROoVD9_-27" value="" style="ellipse;whiteSpace=wrap;html=1;aspect=fixed;strokeWidth=2;fillColor=#b1ddf0;strokeColor=#10739e;" parent="vY1KS3BJuGOrlJXOX7hW-2" vertex="1">
          <mxGeometry x="3.8493150684931514" y="26.87418220564732" width="13" height="13" as="geometry" />
        </mxCell>
        <mxCell id="XYlBqfbwVm8jxROoVD9_-36" style="rounded=0;orthogonalLoop=1;jettySize=auto;html=1;endArrow=openThin;endFill=0;strokeColor=#82b366;strokeWidth=2;fillColor=#d5e8d4;endSize=3;exitX=0;exitY=1;exitDx=0;exitDy=0;entryX=0.89;entryY=0.017;entryDx=0;entryDy=0;entryPerimeter=0;" parent="vY1KS3BJuGOrlJXOX7hW-2" source="XYlBqfbwVm8jxROoVD9_-24" target="XYlBqfbwVm8jxROoVD9_-27" edge="1">
          <mxGeometry relative="1" as="geometry">
            <mxPoint x="45.3013698630137" y="29.975492807671824" as="sourcePoint" />
            <mxPoint x="59.93150684931507" y="38.0458177943527" as="targetPoint" />
          </mxGeometry>
        </mxCell>
        <mxCell id="XYlBqfbwVm8jxROoVD9_-44" style="rounded=0;orthogonalLoop=1;jettySize=auto;html=1;endArrow=openThin;endFill=0;strokeColor=#82b366;strokeWidth=2;fillColor=#d5e8d4;endSize=3;exitX=0.5;exitY=1;exitDx=0;exitDy=0;" parent="vY1KS3BJuGOrlJXOX7hW-2" source="XYlBqfbwVm8jxROoVD9_-24" edge="1">
          <mxGeometry relative="1" as="geometry">
            <mxPoint x="35.54794520547959" y="20.75226425146511" as="sourcePoint" />
            <mxPoint x="33.10958904109589" y="32.638700053276516" as="targetPoint" />
          </mxGeometry>
        </mxCell>
        <mxCell id="XYlBqfbwVm8jxROoVD9_-67" style="rounded=0;orthogonalLoop=1;jettySize=auto;html=1;endArrow=openThin;endFill=0;strokeColor=#82b366;strokeWidth=2;fillColor=#d5e8d4;endSize=3;" parent="vY1KS3BJuGOrlJXOX7hW-2" edge="1">
          <mxGeometry relative="1" as="geometry">
            <mxPoint x="32" y="37.92" as="sourcePoint" />
            <mxPoint x="24" y="49.92" as="targetPoint" />
          </mxGeometry>
        </mxCell>
        <mxCell id="XYlBqfbwVm8jxROoVD9_-24" value="" style="ellipse;whiteSpace=wrap;html=1;aspect=fixed;strokeWidth=2;fillColor=#b1ddf0;strokeColor=#10739e;" parent="vY1KS3BJuGOrlJXOX7hW-2" vertex="1">
          <mxGeometry x="23.58" y="4.53" width="13" height="13" as="geometry" />
        </mxCell>
        <mxCell id="vY1KS3BJuGOrlJXOX7hW-250" value="&lt;font style=&quot;color: rgb(0, 51, 0);&quot; face=&quot;Verdana&quot;&gt;&lt;b style=&quot;&quot;&gt;e&lt;/b&gt;&lt;/font&gt;" style="text;html=1;align=center;verticalAlign=middle;resizable=0;points=[];autosize=1;strokeColor=none;fillColor=none;" vertex="1" parent="vY1KS3BJuGOrlJXOX7hW-2">
          <mxGeometry x="42.85000000000002" y="11.159999999999997" width="26" height="27" as="geometry" />
        </mxCell>
        <mxCell id="vY1KS3BJuGOrlJXOX7hW-251" value="&lt;font style=&quot;color: rgb(0, 51, 0);&quot; face=&quot;Verdana&quot;&gt;&lt;b style=&quot;&quot;&gt;e&lt;/b&gt;&lt;/font&gt;" style="text;html=1;align=center;verticalAlign=middle;resizable=0;points=[];autosize=1;strokeColor=none;fillColor=none;" vertex="1" parent="vY1KS3BJuGOrlJXOX7hW-2">
          <mxGeometry x="-2.6499999999999773" y="18.959999999999994" width="26" height="27" as="geometry" />
        </mxCell>
        <mxCell id="vY1KS3BJuGOrlJXOX7hW-252" value="&lt;font style=&quot;color: rgb(0, 51, 0);&quot; face=&quot;Verdana&quot;&gt;&lt;b style=&quot;&quot;&gt;e&lt;/b&gt;&lt;/font&gt;" style="text;html=1;align=center;verticalAlign=middle;resizable=0;points=[];autosize=1;strokeColor=none;fillColor=none;" vertex="1" parent="vY1KS3BJuGOrlJXOX7hW-2">
          <mxGeometry x="6.5" y="42.78" width="26" height="27" as="geometry" />
        </mxCell>
        <mxCell id="vY1KS3BJuGOrlJXOX7hW-248" value="&lt;font style=&quot;color: rgb(0, 51, 0);&quot; face=&quot;Verdana&quot;&gt;&lt;b style=&quot;&quot;&gt;e&lt;/b&gt;&lt;/font&gt;" style="text;html=1;align=center;verticalAlign=middle;resizable=0;points=[];autosize=1;strokeColor=none;fillColor=none;" vertex="1" parent="vY1KS3BJuGOrlJXOX7hW-2">
          <mxGeometry x="15.850000000000023" y="-4.079999999999998" width="26" height="27" as="geometry" />
        </mxCell>
        <mxCell id="XYlBqfbwVm8jxROoVD9_-42" value="&lt;b&gt;&lt;font style=&quot;font-size: 22px;&quot; face=&quot;Comic Sans MS&quot;&gt;...&lt;/font&gt;&lt;/b&gt;" style="text;html=1;align=center;verticalAlign=middle;resizable=0;points=[];autosize=1;strokeColor=none;fillColor=none;fontColor=light-dark(#12739e, #ededed);" parent="vY1KS3BJuGOrlJXOX7hW-2" vertex="1">
          <mxGeometry x="14.498904109589034" y="7.9619179541822405" width="47" height="38" as="geometry" />
        </mxCell>
        <mxCell id="vY1KS3BJuGOrlJXOX7hW-98" value="&lt;font style=&quot;color: rgb(0, 102, 102); font-size: 14px;&quot;&gt;P&lt;/font&gt;&lt;span style=&quot;font-size: 8.33333px;&quot;&gt;&lt;/span&gt;" style="rounded=1;whiteSpace=wrap;html=1;verticalAlign=bottom;fontStyle=1;strokeWidth=2;fillColor=light-dark(#f8fffe, #103c3f);strokeColor=#0e8088;" vertex="1" parent="1">
          <mxGeometry x="719" y="88.64999999999998" width="30" height="20" as="geometry" />
        </mxCell>
        <mxCell id="vY1KS3BJuGOrlJXOX7hW-253" value="" style="group" vertex="1" connectable="0" parent="1">
          <mxGeometry x="460" y="68" width="170" height="175" as="geometry" />
        </mxCell>
        <mxCell id="XYlBqfbwVm8jxROoVD9_-21" value="" style="shape=umlFrame;whiteSpace=wrap;html=1;pointerEvents=0;width=32;height=17;fillColor=#dae8fc;strokeColor=#6c8ebf;fillStyle=auto;shadow=0;strokeWidth=2;swimlaneFillColor=light-dark(#F2F7FF,#002813);" parent="vY1KS3BJuGOrlJXOX7hW-253" vertex="1">
          <mxGeometry x="5" y="105.98563447725455" width="170" height="49.880287310454904" as="geometry" />
        </mxCell>
        <mxCell id="XYlBqfbwVm8jxROoVD9_-2" value="" style="shape=umlFrame;whiteSpace=wrap;html=1;pointerEvents=0;width=32;height=17;fillColor=#dae8fc;strokeColor=#6c8ebf;fillStyle=auto;shadow=0;strokeWidth=2;swimlaneFillColor=light-dark(#F2F7FF,#002813);" parent="vY1KS3BJuGOrlJXOX7hW-253" vertex="1">
          <mxGeometry x="5" y="33.60933758978451" width="170" height="49.880287310454904" as="geometry" />
        </mxCell>
        <mxCell id="XYlBqfbwVm8jxROoVD9_-3" value="&lt;font face=&quot;Helvetica&quot; style=&quot;color: rgb(0, 102, 0); font-size: 14px;&quot;&gt;&lt;b style=&quot;&quot;&gt;A&lt;/b&gt;&lt;/font&gt;" style="shape=umlLifeline;perimeter=lifelinePerimeter;whiteSpace=wrap;html=1;container=1;dropTarget=0;collapsible=0;recursiveResize=0;outlineConnect=0;portConstraint=eastwest;newEdgeStyle={&quot;curved&quot;:0,&quot;rounded&quot;:0};size=19;fillColor=#d5e8d4;strokeColor=#82b366;strokeWidth=3;rounded=1;shadow=0;" parent="vY1KS3BJuGOrlJXOX7hW-253" vertex="1">
          <mxGeometry x="22" y="0.4189944134078229" width="50" height="175" as="geometry" />
        </mxCell>
        <mxCell id="XYlBqfbwVm8jxROoVD9_-5" value="&lt;font face=&quot;Helvetica&quot; style=&quot;color: rgb(0, 102, 0); font-size: 14px;&quot;&gt;&lt;b style=&quot;&quot;&gt;B&lt;/b&gt;&lt;/font&gt;" style="shape=umlLifeline;perimeter=lifelinePerimeter;whiteSpace=wrap;html=1;container=1;dropTarget=0;collapsible=0;recursiveResize=0;outlineConnect=0;portConstraint=eastwest;newEdgeStyle={&quot;curved&quot;:0,&quot;rounded&quot;:0};size=19;fillColor=#d5e8d4;strokeColor=#82b366;strokeWidth=3;rounded=1;shadow=0;" parent="vY1KS3BJuGOrlJXOX7hW-253" vertex="1">
          <mxGeometry x="107" width="50" height="174.58100558659217" as="geometry" />
        </mxCell>
        <mxCell id="XYlBqfbwVm8jxROoVD9_-46" value="&lt;span style=&quot;font-size: 16px;&quot;&gt;&lt;font style=&quot;color: rgb(0, 102, 204);&quot;&gt;F&lt;sub style=&quot;&quot;&gt;1&lt;/sub&gt;&lt;/font&gt;&lt;/span&gt;" style="text;html=1;align=center;verticalAlign=middle;resizable=0;points=[];autosize=1;strokeColor=none;fillColor=none;fontStyle=1;strokeWidth=2;container=0;" parent="vY1KS3BJuGOrlJXOX7hW-253" vertex="1">
          <mxGeometry x="71.5" y="44.75651350517434" width="35" height="34" as="geometry" />
        </mxCell>
        <mxCell id="XYlBqfbwVm8jxROoVD9_-47" value="&lt;span style=&quot;font-size: 16px;&quot;&gt;&lt;font style=&quot;color: rgb(0, 102, 204);&quot;&gt;F&lt;sub style=&quot;&quot;&gt;2&lt;/sub&gt;&lt;/font&gt;&lt;/span&gt;" style="text;html=1;align=center;verticalAlign=middle;resizable=0;points=[];autosize=1;strokeColor=none;fillColor=none;fontStyle=1;strokeWidth=2;container=0;" parent="vY1KS3BJuGOrlJXOX7hW-253" vertex="1">
          <mxGeometry x="70" y="116.57415117476731" width="35" height="34" as="geometry" />
        </mxCell>
      </root>
    </mxGraphModel>
  </diagram>
</mxfile>
